#!OML:ASF H:\Swim 2\Project 1\Capture day 1\Session 1\male.ASF
:FULLY-SPECIFIED
:DEGREES
1802
root 4.53748 14.8712 11.0612 -59.4444 -81.4715 157.52
lowerback -22.2151 3.37439 4.84022
upperback -18.6543 1.70611 -6.11546
thorax -8.25279 -1.15105 -9.18738
lowerneck -22.8071 -0.552776 -2.62978
upperneck 19.0442 0.000812062 0.391817
head 9.80334 -0.162195 0.566278
rclavicle 1.26042e-014 -6.70091e-014
rhumerus -16.7206 5.89208 4.59104
rradius 28.7258
rwrist -47.9099
rhand 11.71 -4.54757
rfingers 7.12502
rthumb 36.7464 -30.6772
lclavicle 1.26042e-014 -6.70091e-014
lhumerus 414.478 -69.7099 -446.248
lradius 29.5326
lwrist 131.842
lhand -43.2535 -11.7643
lfingers 7.12502
lthumb -16.1025 377.587
rfemur -41.4904 -6.1028 25.9939
rtibia 68.4277
rfoot 37.4466 5.72327
rtoes 26.9284
lfemur -43.2244 13.0554 -25.8417
ltibia 79.0214
lfoot 32.1572 1.67273
ltoes 12.9879
1803
root 4.52294 14.8975 11.0825 -57.685 -81.5066 155.944
lowerback -22.5049 3.38991 5.03479
upperback -18.8059 1.64434 -6.09323
thorax -8.31368 -1.23762 -9.28621
lowerneck -23.1118 -0.397537 -2.64925
upperneck 20.9104 0.103744 0.810558
head 10.5283 -0.0903185 0.739699
rclavicle -1.33061e-014 -6.66177e-014
rhumerus -14.8381 3.91821 6.86375
rradius 28.8357
rwrist -47.6711
rhand 11.8983 -4.773
rfingers 7.12502
rthumb 36.9245 -30.8569
lclavicle -1.33061e-014 -6.66177e-014
lhumerus 405.121 -65.7234 -437.183
lradius 29.3143
lwrist 126.9
lhand -43.9884 -11.1717
lfingers 7.12502
lthumb -16.81 378.121
rfemur -40.9822 -6.70002 26.1909
rtibia 69.491
rfoot 37.2148 5.36797
rtoes 27.6753
lfemur -42.7895 12.9684 -25.3416
ltibia 80.0632
lfoot 31.8042 1.47347
ltoes 12.3482
1804
root 4.51081 14.921 11.1033 -55.8051 -81.5401 154.27
lowerback -22.7855 3.39788 5.28995
upperback -18.9345 1.56218 -6.09935
thorax -8.35792 -1.34255 -9.45725
lowerneck -23.4142 -0.272717 -2.66059
upperneck 22.6756 0.124075 1.28749
head 11.2368 -0.0465971 0.927143
rclavicle -1.50952e-014 -1.28589e-014
rhumerus -12.9169 2.11916 8.84858
rradius 28.9521
rwrist -47.0923
rhand 12.0767 -4.96443
rfingers 7.12502
rthumb 37.0932 -31.0047
lclavicle -1.50952e-014 -1.28589e-014
lhumerus 398.395 -61.0637 -430.675
lradius 29.1774
lwrist 121.543
lhand -44.4607 -10.0438
lfingers 7.12502
lthumb -17.2646 379.209
rfemur -40.523 -7.27205 26.4039
rtibia 70.5403
rfoot 36.993 5.02356
rtoes 28.4032
lfemur -42.4108 12.8675 -24.8196
ltibia 81.1175
lfoot 31.4165 1.28089
ltoes 11.7585
1805
root 4.50101 14.9416 11.1236 -53.9068 -81.5656 152.599
lowerback -23.0573 3.40155 5.56485
upperback -19.0359 1.47287 -6.12725
thorax -8.37707 -1.45174 -9.66705
lowerneck -23.7152 -0.183437 -2.66498
upperneck 24.3102 0.0643333 1.7877
head 11.9183 -0.0322189 1.11596
rclavicle 4.31611e-014 8.40114e-014
rhumerus -10.9809 0.521174 10.6204
rradius 29.1011
rwrist -46.3495
rhand 12.3062 -5.13354
rfingers 7.12502
rthumb 37.3103 -31.1171
lclavicle 4.31611e-014 8.40114e-014
lhumerus 393.716 -55.987 -426.137
lradius 29.0678
lwrist 116.291
lhand -44.3296 -8.6083
lfingers 7.12502
lthumb -17.1385 380.656
rfemur -40.1202 -7.80784 26.6223
rtibia 71.5713
rfoot 36.7794 4.70183
rtoes 29.0839
lfemur -42.0887 12.7629 -24.2931
ltibia 82.1755
lfoot 31.033 1.06092
ltoes 11.2682
1806
root 4.49326 14.9592 11.1434 -52.0617 -81.5785 151.004
lowerback -23.3182 3.40524 5.83751
upperback -19.1092 1.38751 -6.17379
thorax -8.36798 -1.55533 -9.89742
lowerneck -24.0165 -0.130514 -2.70378
upperneck 25.818 -0.0611637 2.31509
head 12.5735 -0.04311 1.31632
rclavicle 1.92324e-014 1.635e-014
rhumerus -9.05628 -0.916424 12.2378
rradius 29.3034
rwrist -45.5616
rhand 12.6384 -5.28545
rfingers 7.12502
rthumb 37.6242 -31.1859
lclavicle 1.92324e-014 1.635e-014
lhumerus 390.447 -50.6318 -422.888
lradius 28.9804
lwrist 111.215
lhand -43.5423 -6.93177
lfingers 7.12502
lthumb -16.3805 382.397
rfemur -39.7769 -8.30244 26.8361
rtibia 72.5799
rfoot 36.5604 4.43561
rtoes 29.6842
lfemur -41.8224 12.6602 -23.7807
ltibia 83.2272
lfoot 30.6627 0.761312
ltoes 10.7364
